<mxfile host="Electron" agent="Mozilla/5.0 (Windows NT 10.0; Win64; x64) AppleWebKit/537.36 (KHTML, like Gecko) draw.io/26.1.1 Chrome/132.0.6834.210 Electron/34.3.3 Safari/537.36" version="26.1.1">
  <diagram name="Page-1" id="zO423E_ZoOyMEr7k2f1L">
    <mxGraphModel dx="1430" dy="624" grid="1" gridSize="10" guides="1" tooltips="1" connect="1" arrows="1" fold="1" page="1" pageScale="1" pageWidth="1169" pageHeight="827" math="0" shadow="0">
      <root>
        <mxCell id="0" />
        <mxCell id="1" parent="0" />
        <mxCell id="DlGrRHyC1cA0BXUMPYq3-281" style="edgeStyle=orthogonalEdgeStyle;rounded=0;orthogonalLoop=1;jettySize=auto;html=1;exitX=1;exitY=0.5;exitDx=0;exitDy=0;entryX=0;entryY=0.5;entryDx=0;entryDy=0;endArrow=none;startFill=0;" parent="1" source="DlGrRHyC1cA0BXUMPYq3-2" target="DlGrRHyC1cA0BXUMPYq3-280" edge="1">
          <mxGeometry relative="1" as="geometry" />
        </mxCell>
        <mxCell id="DlGrRHyC1cA0BXUMPYq3-2" value="USER" style="whiteSpace=wrap;html=1;align=center;" parent="1" vertex="1">
          <mxGeometry x="535" y="140" width="100" height="40" as="geometry" />
        </mxCell>
        <mxCell id="DlGrRHyC1cA0BXUMPYq3-245" style="rounded=0;orthogonalLoop=1;jettySize=auto;html=1;exitX=0;exitY=1;exitDx=0;exitDy=0;entryX=0.5;entryY=0;entryDx=0;entryDy=0;endArrow=none;endFill=0;" parent="1" source="DlGrRHyC1cA0BXUMPYq3-247" edge="1">
          <mxGeometry relative="1" as="geometry">
            <mxPoint x="500" y="275" as="targetPoint" />
          </mxGeometry>
        </mxCell>
        <mxCell id="DlGrRHyC1cA0BXUMPYq3-246" style="rounded=0;orthogonalLoop=1;jettySize=auto;html=1;exitX=1;exitY=1;exitDx=0;exitDy=0;entryX=0.5;entryY=0;entryDx=0;entryDy=0;endArrow=none;endFill=0;" parent="1" source="DlGrRHyC1cA0BXUMPYq3-247" edge="1">
          <mxGeometry relative="1" as="geometry">
            <mxPoint x="670" y="275" as="targetPoint" />
          </mxGeometry>
        </mxCell>
        <mxCell id="DlGrRHyC1cA0BXUMPYq3-247" value="o" style="ellipse;whiteSpace=wrap;html=1;aspect=fixed;" parent="1" vertex="1">
          <mxGeometry x="575" y="198" width="20" height="20" as="geometry" />
        </mxCell>
        <mxCell id="DlGrRHyC1cA0BXUMPYq3-248" style="edgeStyle=orthogonalEdgeStyle;rounded=0;orthogonalLoop=1;jettySize=auto;html=1;entryX=0.5;entryY=1;entryDx=0;entryDy=0;endArrow=none;endFill=0;exitX=0.5;exitY=0;exitDx=0;exitDy=0;" parent="1" source="DlGrRHyC1cA0BXUMPYq3-247" edge="1">
          <mxGeometry relative="1" as="geometry">
            <mxPoint x="585" y="202" as="sourcePoint" />
            <mxPoint x="585" y="180" as="targetPoint" />
          </mxGeometry>
        </mxCell>
        <mxCell id="DlGrRHyC1cA0BXUMPYq3-249" value="" style="shape=dataStorage;whiteSpace=wrap;html=1;fixedSize=1;size=100;rotation=-35;" parent="1" vertex="1">
          <mxGeometry x="526" y="240.5" width="18" height="15" as="geometry" />
        </mxCell>
        <mxCell id="DlGrRHyC1cA0BXUMPYq3-250" value="" style="shape=dataStorage;whiteSpace=wrap;html=1;fixedSize=1;size=100;rotation=-145;" parent="1" vertex="1">
          <mxGeometry x="628" y="242" width="18" height="15" as="geometry" />
        </mxCell>
        <mxCell id="DlGrRHyC1cA0BXUMPYq3-264" style="edgeStyle=orthogonalEdgeStyle;rounded=0;orthogonalLoop=1;jettySize=auto;html=1;exitX=0.5;exitY=1;exitDx=0;exitDy=0;entryX=0.5;entryY=0;entryDx=0;entryDy=0;endArrow=none;startFill=0;" parent="1" source="DlGrRHyC1cA0BXUMPYq3-253" target="DlGrRHyC1cA0BXUMPYq3-263" edge="1">
          <mxGeometry relative="1" as="geometry" />
        </mxCell>
        <mxCell id="21jT29tWylWuVhvwRp_g-45" style="rounded=0;orthogonalLoop=1;jettySize=auto;html=1;exitX=0.75;exitY=1;exitDx=0;exitDy=0;entryX=0;entryY=0;entryDx=0;entryDy=0;endArrow=none;startFill=0;" parent="1" source="DlGrRHyC1cA0BXUMPYq3-253" target="21jT29tWylWuVhvwRp_g-44" edge="1">
          <mxGeometry relative="1" as="geometry" />
        </mxCell>
        <mxCell id="DlGrRHyC1cA0BXUMPYq3-253" value="DRIVER" style="whiteSpace=wrap;html=1;align=center;" parent="1" vertex="1">
          <mxGeometry x="620" y="275.5" width="100" height="40" as="geometry" />
        </mxCell>
        <mxCell id="DlGrRHyC1cA0BXUMPYq3-270" style="edgeStyle=orthogonalEdgeStyle;rounded=0;orthogonalLoop=1;jettySize=auto;html=1;exitX=0;exitY=0.5;exitDx=0;exitDy=0;entryX=1;entryY=0.5;entryDx=0;entryDy=0;endArrow=none;startFill=0;" parent="1" source="DlGrRHyC1cA0BXUMPYq3-254" target="DlGrRHyC1cA0BXUMPYq3-266" edge="1">
          <mxGeometry relative="1" as="geometry" />
        </mxCell>
        <mxCell id="21jT29tWylWuVhvwRp_g-61" style="rounded=0;orthogonalLoop=1;jettySize=auto;html=1;exitX=0;exitY=0.75;exitDx=0;exitDy=0;entryX=1;entryY=0.5;entryDx=0;entryDy=0;endArrow=none;startFill=0;" parent="1" source="DlGrRHyC1cA0BXUMPYq3-254" target="21jT29tWylWuVhvwRp_g-60" edge="1">
          <mxGeometry relative="1" as="geometry" />
        </mxCell>
        <mxCell id="DlGrRHyC1cA0BXUMPYq3-254" value="PASSENGER" style="whiteSpace=wrap;html=1;align=center;" parent="1" vertex="1">
          <mxGeometry x="452" y="275.5" width="100" height="40" as="geometry" />
        </mxCell>
        <mxCell id="21jT29tWylWuVhvwRp_g-8" style="rounded=0;orthogonalLoop=1;jettySize=auto;html=1;exitX=0;exitY=0.5;exitDx=0;exitDy=0;entryX=1;entryY=0.5;entryDx=0;entryDy=0;endArrow=none;startFill=0;" parent="1" source="DlGrRHyC1cA0BXUMPYq3-255" target="21jT29tWylWuVhvwRp_g-5" edge="1">
          <mxGeometry relative="1" as="geometry" />
        </mxCell>
        <mxCell id="DlGrRHyC1cA0BXUMPYq3-255" value="PAYMENT" style="whiteSpace=wrap;html=1;align=center;" parent="1" vertex="1">
          <mxGeometry x="310" y="450.5" width="100" height="40" as="geometry" />
        </mxCell>
        <mxCell id="DlGrRHyC1cA0BXUMPYq3-284" style="edgeStyle=orthogonalEdgeStyle;rounded=0;orthogonalLoop=1;jettySize=auto;html=1;exitX=0.5;exitY=0;exitDx=0;exitDy=0;entryX=0.5;entryY=1;entryDx=0;entryDy=0;endArrow=none;startFill=0;" parent="1" source="DlGrRHyC1cA0BXUMPYq3-256" target="DlGrRHyC1cA0BXUMPYq3-283" edge="1">
          <mxGeometry relative="1" as="geometry" />
        </mxCell>
        <mxCell id="vDaypBNMxRBxDDfHmTtc-6" style="rounded=0;orthogonalLoop=1;jettySize=auto;html=1;exitX=0.75;exitY=1;exitDx=0;exitDy=0;entryX=0.5;entryY=0;entryDx=0;entryDy=0;endArrow=none;startFill=0;" parent="1" source="DlGrRHyC1cA0BXUMPYq3-256" target="vDaypBNMxRBxDDfHmTtc-1" edge="1">
          <mxGeometry relative="1" as="geometry" />
        </mxCell>
        <mxCell id="vDaypBNMxRBxDDfHmTtc-23" style="rounded=0;orthogonalLoop=1;jettySize=auto;html=1;exitX=1;exitY=0.5;exitDx=0;exitDy=0;entryX=0;entryY=0.5;entryDx=0;entryDy=0;endArrow=none;startFill=0;" parent="1" source="DlGrRHyC1cA0BXUMPYq3-256" target="vDaypBNMxRBxDDfHmTtc-22" edge="1">
          <mxGeometry relative="1" as="geometry" />
        </mxCell>
        <mxCell id="DlGrRHyC1cA0BXUMPYq3-256" value="ADMIN" style="whiteSpace=wrap;html=1;align=center;" parent="1" vertex="1">
          <mxGeometry x="910" y="380.5" width="100" height="40" as="geometry" />
        </mxCell>
        <mxCell id="DlGrRHyC1cA0BXUMPYq3-257" value="CARD_PAYMENT" style="whiteSpace=wrap;html=1;align=center;" parent="1" vertex="1">
          <mxGeometry x="420" y="586" width="120" height="40" as="geometry" />
        </mxCell>
        <mxCell id="21jT29tWylWuVhvwRp_g-11" style="rounded=0;orthogonalLoop=1;jettySize=auto;html=1;exitX=0.25;exitY=1;exitDx=0;exitDy=0;entryX=0.73;entryY=0.07;entryDx=0;entryDy=0;endArrow=none;startFill=0;entryPerimeter=0;" parent="1" source="DlGrRHyC1cA0BXUMPYq3-258" target="21jT29tWylWuVhvwRp_g-1" edge="1">
          <mxGeometry relative="1" as="geometry" />
        </mxCell>
        <mxCell id="21jT29tWylWuVhvwRp_g-12" style="rounded=0;orthogonalLoop=1;jettySize=auto;html=1;exitX=0.75;exitY=1;exitDx=0;exitDy=0;entryX=0.5;entryY=0;entryDx=0;entryDy=0;endArrow=none;startFill=0;" parent="1" source="DlGrRHyC1cA0BXUMPYq3-258" target="21jT29tWylWuVhvwRp_g-2" edge="1">
          <mxGeometry relative="1" as="geometry" />
        </mxCell>
        <mxCell id="DlGrRHyC1cA0BXUMPYq3-258" value="WALLET_PAYMENT" style="whiteSpace=wrap;html=1;align=center;" parent="1" vertex="1">
          <mxGeometry x="181" y="585" width="120" height="40" as="geometry" />
        </mxCell>
        <mxCell id="DlGrRHyC1cA0BXUMPYq3-259" value="RIDE" style="whiteSpace=wrap;html=1;align=center;" parent="1" vertex="1">
          <mxGeometry x="167" y="155.02999999999997" width="100" height="40" as="geometry" />
        </mxCell>
        <mxCell id="21jT29tWylWuVhvwRp_g-18" style="rounded=0;orthogonalLoop=1;jettySize=auto;html=1;exitX=0;exitY=0.5;exitDx=0;exitDy=0;entryX=1;entryY=0;entryDx=0;entryDy=0;endArrow=none;startFill=0;" parent="1" source="DlGrRHyC1cA0BXUMPYq3-261" target="21jT29tWylWuVhvwRp_g-15" edge="1">
          <mxGeometry relative="1" as="geometry" />
        </mxCell>
        <mxCell id="DlGrRHyC1cA0BXUMPYq3-261" value="VEHICLE" style="whiteSpace=wrap;html=1;align=center;" parent="1" vertex="1">
          <mxGeometry x="620" y="500.5" width="100" height="40" as="geometry" />
        </mxCell>
        <mxCell id="vDaypBNMxRBxDDfHmTtc-26" style="rounded=0;orthogonalLoop=1;jettySize=auto;html=1;exitX=1;exitY=0.5;exitDx=0;exitDy=0;entryX=0.084;entryY=0.768;entryDx=0;entryDy=0;endArrow=none;startFill=0;entryPerimeter=0;" parent="1" source="DlGrRHyC1cA0BXUMPYq3-262" target="vDaypBNMxRBxDDfHmTtc-25" edge="1">
          <mxGeometry relative="1" as="geometry" />
        </mxCell>
        <mxCell id="DlGrRHyC1cA0BXUMPYq3-262" value="CUSTOMER_SERVICE" style="whiteSpace=wrap;html=1;align=center;" parent="1" vertex="1">
          <mxGeometry x="890" y="140" width="140" height="40" as="geometry" />
        </mxCell>
        <mxCell id="DlGrRHyC1cA0BXUMPYq3-265" style="edgeStyle=orthogonalEdgeStyle;rounded=0;orthogonalLoop=1;jettySize=auto;html=1;exitX=0.5;exitY=1;exitDx=0;exitDy=0;entryX=0.5;entryY=0;entryDx=0;entryDy=0;endArrow=none;startFill=0;" parent="1" source="DlGrRHyC1cA0BXUMPYq3-263" target="DlGrRHyC1cA0BXUMPYq3-261" edge="1">
          <mxGeometry relative="1" as="geometry" />
        </mxCell>
        <mxCell id="DlGrRHyC1cA0BXUMPYq3-263" value="drives" style="shape=rhombus;perimeter=rhombusPerimeter;whiteSpace=wrap;html=1;align=center;" parent="1" vertex="1">
          <mxGeometry x="630" y="380.5" width="80" height="60" as="geometry" />
        </mxCell>
        <mxCell id="DlGrRHyC1cA0BXUMPYq3-268" style="edgeStyle=orthogonalEdgeStyle;rounded=0;orthogonalLoop=1;jettySize=auto;html=1;exitX=0;exitY=0.5;exitDx=0;exitDy=0;entryX=0.5;entryY=1;entryDx=0;entryDy=0;endArrow=none;startFill=0;" parent="1" source="DlGrRHyC1cA0BXUMPYq3-266" target="DlGrRHyC1cA0BXUMPYq3-259" edge="1">
          <mxGeometry relative="1" as="geometry" />
        </mxCell>
        <mxCell id="DlGrRHyC1cA0BXUMPYq3-266" value="book" style="shape=rhombus;perimeter=rhombusPerimeter;whiteSpace=wrap;html=1;align=center;" parent="1" vertex="1">
          <mxGeometry x="282" y="265.03" width="80" height="60" as="geometry" />
        </mxCell>
        <mxCell id="DlGrRHyC1cA0BXUMPYq3-272" style="rounded=0;orthogonalLoop=1;jettySize=auto;html=1;exitX=1;exitY=0.5;exitDx=0;exitDy=0;entryX=0.5;entryY=1;entryDx=0;entryDy=0;endArrow=none;startFill=0;" parent="1" source="DlGrRHyC1cA0BXUMPYq3-271" target="DlGrRHyC1cA0BXUMPYq3-254" edge="1">
          <mxGeometry relative="1" as="geometry" />
        </mxCell>
        <mxCell id="DlGrRHyC1cA0BXUMPYq3-273" style="rounded=0;orthogonalLoop=1;jettySize=auto;html=1;exitX=0;exitY=0.5;exitDx=0;exitDy=0;entryX=0.5;entryY=0;entryDx=0;entryDy=0;endArrow=none;startFill=0;" parent="1" source="DlGrRHyC1cA0BXUMPYq3-271" target="DlGrRHyC1cA0BXUMPYq3-255" edge="1">
          <mxGeometry relative="1" as="geometry">
            <mxPoint x="370" y="440.0000000000001" as="targetPoint" />
          </mxGeometry>
        </mxCell>
        <mxCell id="DlGrRHyC1cA0BXUMPYq3-271" value="set" style="shape=rhombus;perimeter=rhombusPerimeter;whiteSpace=wrap;html=1;align=center;" parent="1" vertex="1">
          <mxGeometry x="400" y="374" width="80" height="60" as="geometry" />
        </mxCell>
        <mxCell id="DlGrRHyC1cA0BXUMPYq3-274" style="rounded=0;orthogonalLoop=1;jettySize=auto;html=1;exitX=0;exitY=1;exitDx=0;exitDy=0;entryX=0.5;entryY=0;entryDx=0;entryDy=0;endArrow=none;endFill=0;" parent="1" source="DlGrRHyC1cA0BXUMPYq3-276" edge="1">
          <mxGeometry relative="1" as="geometry">
            <mxPoint x="275" y="585.5" as="targetPoint" />
          </mxGeometry>
        </mxCell>
        <mxCell id="DlGrRHyC1cA0BXUMPYq3-275" style="rounded=0;orthogonalLoop=1;jettySize=auto;html=1;exitX=1;exitY=1;exitDx=0;exitDy=0;entryX=0.5;entryY=0;entryDx=0;entryDy=0;endArrow=none;endFill=0;" parent="1" source="DlGrRHyC1cA0BXUMPYq3-276" edge="1">
          <mxGeometry relative="1" as="geometry">
            <mxPoint x="445" y="585.5" as="targetPoint" />
          </mxGeometry>
        </mxCell>
        <mxCell id="DlGrRHyC1cA0BXUMPYq3-276" value="o" style="ellipse;whiteSpace=wrap;html=1;aspect=fixed;" parent="1" vertex="1">
          <mxGeometry x="350" y="508.5" width="20" height="20" as="geometry" />
        </mxCell>
        <mxCell id="DlGrRHyC1cA0BXUMPYq3-277" style="edgeStyle=orthogonalEdgeStyle;rounded=0;orthogonalLoop=1;jettySize=auto;html=1;entryX=0.5;entryY=1;entryDx=0;entryDy=0;endArrow=none;endFill=0;exitX=0.5;exitY=0;exitDx=0;exitDy=0;" parent="1" source="DlGrRHyC1cA0BXUMPYq3-276" edge="1">
          <mxGeometry relative="1" as="geometry">
            <mxPoint x="360" y="512.5" as="sourcePoint" />
            <mxPoint x="360" y="490.5" as="targetPoint" />
          </mxGeometry>
        </mxCell>
        <mxCell id="DlGrRHyC1cA0BXUMPYq3-278" value="" style="shape=dataStorage;whiteSpace=wrap;html=1;fixedSize=1;size=100;rotation=-35;" parent="1" vertex="1">
          <mxGeometry x="301" y="551" width="18" height="15" as="geometry" />
        </mxCell>
        <mxCell id="DlGrRHyC1cA0BXUMPYq3-279" value="" style="shape=dataStorage;whiteSpace=wrap;html=1;fixedSize=1;size=100;rotation=-145;" parent="1" vertex="1">
          <mxGeometry x="403" y="552.5" width="18" height="15" as="geometry" />
        </mxCell>
        <mxCell id="DlGrRHyC1cA0BXUMPYq3-282" style="edgeStyle=orthogonalEdgeStyle;rounded=0;orthogonalLoop=1;jettySize=auto;html=1;exitX=1;exitY=0.5;exitDx=0;exitDy=0;entryX=0;entryY=0.5;entryDx=0;entryDy=0;endArrow=none;startFill=0;" parent="1" source="DlGrRHyC1cA0BXUMPYq3-280" target="DlGrRHyC1cA0BXUMPYq3-262" edge="1">
          <mxGeometry relative="1" as="geometry" />
        </mxCell>
        <mxCell id="DlGrRHyC1cA0BXUMPYq3-280" value="request" style="shape=rhombus;perimeter=rhombusPerimeter;whiteSpace=wrap;html=1;align=center;" parent="1" vertex="1">
          <mxGeometry x="720" y="130" width="80" height="60" as="geometry" />
        </mxCell>
        <mxCell id="DlGrRHyC1cA0BXUMPYq3-285" style="edgeStyle=orthogonalEdgeStyle;rounded=0;orthogonalLoop=1;jettySize=auto;html=1;exitX=0.5;exitY=0;exitDx=0;exitDy=0;entryX=0.5;entryY=1;entryDx=0;entryDy=0;endArrow=none;startFill=0;" parent="1" source="DlGrRHyC1cA0BXUMPYq3-283" target="DlGrRHyC1cA0BXUMPYq3-262" edge="1">
          <mxGeometry relative="1" as="geometry" />
        </mxCell>
        <mxCell id="DlGrRHyC1cA0BXUMPYq3-283" value="handle" style="shape=rhombus;perimeter=rhombusPerimeter;whiteSpace=wrap;html=1;align=center;" parent="1" vertex="1">
          <mxGeometry x="920" y="255.03" width="80" height="60" as="geometry" />
        </mxCell>
        <mxCell id="vDaypBNMxRBxDDfHmTtc-1" value="Admin_Name" style="ellipse;whiteSpace=wrap;html=1;align=center;" parent="1" vertex="1">
          <mxGeometry x="981" y="456.5" width="100" height="40" as="geometry" />
        </mxCell>
        <mxCell id="vDaypBNMxRBxDDfHmTtc-2" style="rounded=0;orthogonalLoop=1;jettySize=auto;html=1;exitX=0.666;exitY=0.029;exitDx=0;exitDy=0;entryX=0.281;entryY=0.952;entryDx=0;entryDy=0;endArrow=none;endFill=0;exitPerimeter=0;entryPerimeter=0;" parent="1" source="vDaypBNMxRBxDDfHmTtc-3" target="vDaypBNMxRBxDDfHmTtc-1" edge="1">
          <mxGeometry relative="1" as="geometry" />
        </mxCell>
        <mxCell id="vDaypBNMxRBxDDfHmTtc-3" value="FName&lt;span style=&quot;color: rgba(0, 0, 0, 0); font-family: monospace; font-size: 0px; text-align: start; text-wrap: nowrap;&quot;&gt;%3CmxGraphModel%3E%3Croot%3E%3CmxCell%20id%3D%220%22%2F%3E%3CmxCell%20id%3D%221%22%20parent%3D%220%22%2F%3E%3CmxCell%20id%3D%222%22%20value%3D%22Customer_Name%22%20style%3D%22ellipse%3BwhiteSpace%3Dwrap%3Bhtml%3D1%3Balign%3Dcenter%3B%22%20vertex%3D%221%22%20parent%3D%221%22%3E%3CmxGeometry%20x%3D%22320%22%20y%3D%22630%22%20width%3D%22100%22%20height%3D%2240%22%20as%3D%22geometry%22%2F%3E%3C%2FmxCell%3E%3C%2Froot%3E%3C%2FmxGraphModel%3E&lt;/span&gt;" style="ellipse;whiteSpace=wrap;html=1;align=center;" parent="1" vertex="1">
          <mxGeometry x="930" y="526" width="100" height="40" as="geometry" />
        </mxCell>
        <mxCell id="vDaypBNMxRBxDDfHmTtc-4" style="rounded=0;orthogonalLoop=1;jettySize=auto;html=1;exitX=0.5;exitY=1;exitDx=0;exitDy=0;entryX=0.737;entryY=0.943;entryDx=0;entryDy=0;endArrow=none;endFill=0;entryPerimeter=0;" parent="1" source="vDaypBNMxRBxDDfHmTtc-5" target="vDaypBNMxRBxDDfHmTtc-1" edge="1">
          <mxGeometry relative="1" as="geometry" />
        </mxCell>
        <mxCell id="vDaypBNMxRBxDDfHmTtc-5" value="LName&lt;span style=&quot;color: rgba(0, 0, 0, 0); font-family: monospace; font-size: 0px; text-align: start; text-wrap: nowrap;&quot;&gt;%3CmxGraphModel%3E%3Croot%3E%3CmxCell%20id%3D%220%22%2F%3E%3CmxCell%20id%3D%221%22%20parent%3D%220%22%2F%3E%3CmxCell%20id%3D%222%22%20value%3D%22Customer_Name%22%20style%3D%22ellipse%3BwhiteSpace%3Dwrap%3Bhtml%3D1%3Balign%3Dcenter%3B%22%20vertex%3D%221%22%20parent%3D%221%22%3E%3CmxGeometry%20x%3D%22320%22%20y%3D%22630%22%20width%3D%22100%22%20height%3D%2240%22%20as%3D%22geometry%22%2F%3E%3C%2FmxCell%3E%3C%2Froot%3E%3C%2FmxGraphModel%3E&lt;/span&gt;" style="ellipse;whiteSpace=wrap;html=1;align=center;" parent="1" vertex="1">
          <mxGeometry x="1050" y="522" width="100" height="40" as="geometry" />
        </mxCell>
        <mxCell id="vDaypBNMxRBxDDfHmTtc-8" style="rounded=0;orthogonalLoop=1;jettySize=auto;html=1;exitX=0.5;exitY=1;exitDx=0;exitDy=0;entryX=0.5;entryY=0;entryDx=0;entryDy=0;endArrow=none;startFill=0;" parent="1" source="vDaypBNMxRBxDDfHmTtc-7" target="DlGrRHyC1cA0BXUMPYq3-262" edge="1">
          <mxGeometry relative="1" as="geometry" />
        </mxCell>
        <mxCell id="vDaypBNMxRBxDDfHmTtc-7" value="&lt;u&gt;serviceID&lt;/u&gt;" style="ellipse;whiteSpace=wrap;html=1;align=center;" parent="1" vertex="1">
          <mxGeometry x="870" y="80" width="100" height="40" as="geometry" />
        </mxCell>
        <mxCell id="vDaypBNMxRBxDDfHmTtc-9" value="Card_Number" style="ellipse;whiteSpace=wrap;html=1;align=center;" parent="1" vertex="1">
          <mxGeometry x="595" y="730" width="100" height="40" as="geometry" />
        </mxCell>
        <mxCell id="vDaypBNMxRBxDDfHmTtc-10" value="Card_Holder_Name" style="ellipse;whiteSpace=wrap;html=1;align=center;" parent="1" vertex="1">
          <mxGeometry x="634" y="659" width="125" height="50" as="geometry" />
        </mxCell>
        <mxCell id="vDaypBNMxRBxDDfHmTtc-12" value="Security_Code" style="ellipse;whiteSpace=wrap;html=1;align=center;" parent="1" vertex="1">
          <mxGeometry x="460" y="750" width="100" height="40" as="geometry" />
        </mxCell>
        <mxCell id="vDaypBNMxRBxDDfHmTtc-16" style="rounded=0;orthogonalLoop=1;jettySize=auto;html=1;exitX=0.702;exitY=0.049;exitDx=0;exitDy=0;entryX=0.074;entryY=0.766;entryDx=0;entryDy=0;entryPerimeter=0;endArrow=none;startFill=0;exitPerimeter=0;" parent="1" source="vDaypBNMxRBxDDfHmTtc-13" edge="1">
          <mxGeometry relative="1" as="geometry">
            <mxPoint x="493.1400000000001" y="696.768" as="targetPoint" />
          </mxGeometry>
        </mxCell>
        <mxCell id="vDaypBNMxRBxDDfHmTtc-13" value="Bank_Name" style="ellipse;whiteSpace=wrap;html=1;align=center;" parent="1" vertex="1">
          <mxGeometry x="380" y="710" width="100" height="40" as="geometry" />
        </mxCell>
        <mxCell id="vDaypBNMxRBxDDfHmTtc-15" style="rounded=0;orthogonalLoop=1;jettySize=auto;html=1;exitX=0.5;exitY=0;exitDx=0;exitDy=0;entryX=0.5;entryY=1;entryDx=0;entryDy=0;endArrow=none;startFill=0;" parent="1" target="DlGrRHyC1cA0BXUMPYq3-257" edge="1">
          <mxGeometry relative="1" as="geometry">
            <mxPoint x="540" y="660" as="sourcePoint" />
          </mxGeometry>
        </mxCell>
        <mxCell id="vDaypBNMxRBxDDfHmTtc-17" style="edgeStyle=orthogonalEdgeStyle;rounded=0;orthogonalLoop=1;jettySize=auto;html=1;exitX=1;exitY=0.5;exitDx=0;exitDy=0;entryX=0;entryY=0.5;entryDx=0;entryDy=0;endArrow=none;startFill=0;" parent="1" target="vDaypBNMxRBxDDfHmTtc-10" edge="1">
          <mxGeometry relative="1" as="geometry">
            <mxPoint x="595.0000000000007" y="684" as="sourcePoint" />
          </mxGeometry>
        </mxCell>
        <mxCell id="vDaypBNMxRBxDDfHmTtc-18" style="rounded=0;orthogonalLoop=1;jettySize=auto;html=1;exitX=0.5;exitY=0;exitDx=0;exitDy=0;entryX=0.414;entryY=0.99;entryDx=0;entryDy=0;entryPerimeter=0;endArrow=none;startFill=0;" parent="1" source="vDaypBNMxRBxDDfHmTtc-12" edge="1">
          <mxGeometry relative="1" as="geometry">
            <mxPoint x="530.54" y="707.52" as="targetPoint" />
          </mxGeometry>
        </mxCell>
        <mxCell id="vDaypBNMxRBxDDfHmTtc-19" style="rounded=0;orthogonalLoop=1;jettySize=auto;html=1;exitX=0.319;exitY=0.03;exitDx=0;exitDy=0;entryX=0.731;entryY=0.945;entryDx=0;entryDy=0;entryPerimeter=0;endArrow=none;startFill=0;exitPerimeter=0;" parent="1" source="vDaypBNMxRBxDDfHmTtc-9" edge="1">
          <mxGeometry relative="1" as="geometry">
            <mxPoint x="565.4099999999999" y="705.3599999999999" as="targetPoint" />
          </mxGeometry>
        </mxCell>
        <mxCell id="vDaypBNMxRBxDDfHmTtc-21" style="rounded=0;orthogonalLoop=1;jettySize=auto;html=1;exitX=0.5;exitY=0;exitDx=0;exitDy=0;entryX=0.25;entryY=1;entryDx=0;entryDy=0;endArrow=none;startFill=0;" parent="1" source="vDaypBNMxRBxDDfHmTtc-20" target="DlGrRHyC1cA0BXUMPYq3-256" edge="1">
          <mxGeometry relative="1" as="geometry" />
        </mxCell>
        <mxCell id="vDaypBNMxRBxDDfHmTtc-20" value="Admin_id" style="ellipse;whiteSpace=wrap;html=1;align=center;" parent="1" vertex="1">
          <mxGeometry x="830" y="468.5" width="100" height="40" as="geometry" />
        </mxCell>
        <mxCell id="vDaypBNMxRBxDDfHmTtc-22" value="Admin_email" style="ellipse;whiteSpace=wrap;html=1;align=center;" parent="1" vertex="1">
          <mxGeometry x="1060" y="380.5" width="100" height="40" as="geometry" />
        </mxCell>
        <mxCell id="vDaypBNMxRBxDDfHmTtc-25" value="Query" style="ellipse;whiteSpace=wrap;html=1;align=center;" parent="1" vertex="1">
          <mxGeometry x="1069" y="120" width="100" height="40" as="geometry" />
        </mxCell>
        <mxCell id="21jT29tWylWuVhvwRp_g-1" value="walletProvider" style="ellipse;whiteSpace=wrap;html=1;align=center;" parent="1" vertex="1">
          <mxGeometry x="110" y="650" width="100" height="40" as="geometry" />
        </mxCell>
        <mxCell id="21jT29tWylWuVhvwRp_g-2" value="&lt;u&gt;WalletID&lt;/u&gt;" style="ellipse;whiteSpace=wrap;html=1;align=center;" parent="1" vertex="1">
          <mxGeometry x="250" y="650" width="100" height="40" as="geometry" />
        </mxCell>
        <mxCell id="21jT29tWylWuVhvwRp_g-3" value="walletBalance" style="ellipse;whiteSpace=wrap;html=1;align=center;" parent="1" vertex="1">
          <mxGeometry x="60" y="600" width="100" height="40" as="geometry" />
        </mxCell>
        <mxCell id="21jT29tWylWuVhvwRp_g-7" style="rounded=0;orthogonalLoop=1;jettySize=auto;html=1;exitX=0;exitY=0;exitDx=0;exitDy=0;entryX=0.8;entryY=0.988;entryDx=0;entryDy=0;endArrow=none;startFill=0;entryPerimeter=0;" parent="1" source="21jT29tWylWuVhvwRp_g-4" target="DlGrRHyC1cA0BXUMPYq3-255" edge="1">
          <mxGeometry relative="1" as="geometry" />
        </mxCell>
        <mxCell id="21jT29tWylWuVhvwRp_g-4" value="Amount" style="ellipse;whiteSpace=wrap;html=1;align=center;" parent="1" vertex="1">
          <mxGeometry x="403" y="500.5" width="100" height="40" as="geometry" />
        </mxCell>
        <mxCell id="21jT29tWylWuVhvwRp_g-5" value="TransactionID" style="ellipse;whiteSpace=wrap;html=1;align=center;" parent="1" vertex="1">
          <mxGeometry x="160" y="468.5" width="100" height="40" as="geometry" />
        </mxCell>
        <mxCell id="21jT29tWylWuVhvwRp_g-9" style="rounded=0;orthogonalLoop=1;jettySize=auto;html=1;exitX=0.041;exitY=0.702;exitDx=0;exitDy=0;entryX=1;entryY=0.75;entryDx=0;entryDy=0;endArrow=none;startFill=0;exitPerimeter=0;" parent="1" source="21jT29tWylWuVhvwRp_g-6" target="DlGrRHyC1cA0BXUMPYq3-255" edge="1">
          <mxGeometry relative="1" as="geometry" />
        </mxCell>
        <mxCell id="21jT29tWylWuVhvwRp_g-6" value="paymentDate" style="ellipse;whiteSpace=wrap;html=1;align=center;" parent="1" vertex="1">
          <mxGeometry x="435" y="440.5" width="100" height="40" as="geometry" />
        </mxCell>
        <mxCell id="21jT29tWylWuVhvwRp_g-10" style="rounded=0;orthogonalLoop=1;jettySize=auto;html=1;exitX=0;exitY=0.25;exitDx=0;exitDy=0;entryX=1;entryY=0;entryDx=0;entryDy=0;endArrow=none;startFill=0;" parent="1" source="DlGrRHyC1cA0BXUMPYq3-258" target="21jT29tWylWuVhvwRp_g-3" edge="1">
          <mxGeometry relative="1" as="geometry" />
        </mxCell>
        <mxCell id="21jT29tWylWuVhvwRp_g-20" style="rounded=0;orthogonalLoop=1;jettySize=auto;html=1;exitX=0.5;exitY=1;exitDx=0;exitDy=0;entryX=1;entryY=0.25;entryDx=0;entryDy=0;endArrow=none;startFill=0;" parent="1" source="21jT29tWylWuVhvwRp_g-13" target="DlGrRHyC1cA0BXUMPYq3-261" edge="1">
          <mxGeometry relative="1" as="geometry" />
        </mxCell>
        <mxCell id="21jT29tWylWuVhvwRp_g-13" value="&lt;u&gt;VehicleID&lt;/u&gt;" style="ellipse;whiteSpace=wrap;html=1;align=center;" parent="1" vertex="1">
          <mxGeometry x="710" y="450.5" width="100" height="40" as="geometry" />
        </mxCell>
        <mxCell id="21jT29tWylWuVhvwRp_g-14" value="plateNumber" style="ellipse;whiteSpace=wrap;html=1;align=center;" parent="1" vertex="1">
          <mxGeometry x="630" y="566" width="100" height="40" as="geometry" />
        </mxCell>
        <mxCell id="21jT29tWylWuVhvwRp_g-15" value="model&lt;span style=&quot;color: rgba(0, 0, 0, 0); font-family: monospace; font-size: 0px; text-align: start; text-wrap-mode: nowrap;&quot;&gt;%3CmxGraphModel%3E%3Croot%3E%3CmxCell%20id%3D%220%22%2F%3E%3CmxCell%20id%3D%221%22%20parent%3D%220%22%2F%3E%3CmxCell%20id%3D%222%22%20value%3D%22plateNumber%22%20style%3D%22ellipse%3BwhiteSpace%3Dwrap%3Bhtml%3D1%3Balign%3Dcenter%3B%22%20vertex%3D%221%22%20parent%3D%221%22%3E%3CmxGeometry%20x%3D%22730%22%20y%3D%22527.5%22%20width%3D%22100%22%20height%3D%2240%22%20as%3D%22geometry%22%2F%3E%3C%2FmxCell%3E%3C%2Froot%3E%3C%2FmxGraphModel%3E&lt;/span&gt;" style="ellipse;whiteSpace=wrap;html=1;align=center;" parent="1" vertex="1">
          <mxGeometry x="500" y="526" width="100" height="40" as="geometry" />
        </mxCell>
        <mxCell id="21jT29tWylWuVhvwRp_g-17" style="rounded=0;orthogonalLoop=1;jettySize=auto;html=1;exitX=0.5;exitY=1;exitDx=0;exitDy=0;entryX=0.25;entryY=0;entryDx=0;entryDy=0;endArrow=none;startFill=0;" parent="1" source="21jT29tWylWuVhvwRp_g-16" target="DlGrRHyC1cA0BXUMPYq3-261" edge="1">
          <mxGeometry relative="1" as="geometry" />
        </mxCell>
        <mxCell id="21jT29tWylWuVhvwRp_g-16" value="color" style="ellipse;whiteSpace=wrap;html=1;align=center;" parent="1" vertex="1">
          <mxGeometry x="546" y="440.5" width="100" height="40" as="geometry" />
        </mxCell>
        <mxCell id="21jT29tWylWuVhvwRp_g-19" style="rounded=0;orthogonalLoop=1;jettySize=auto;html=1;exitX=0.5;exitY=1;exitDx=0;exitDy=0;entryX=0.618;entryY=0.006;entryDx=0;entryDy=0;entryPerimeter=0;endArrow=none;startFill=0;" parent="1" source="DlGrRHyC1cA0BXUMPYq3-261" target="21jT29tWylWuVhvwRp_g-14" edge="1">
          <mxGeometry relative="1" as="geometry" />
        </mxCell>
        <mxCell id="21jT29tWylWuVhvwRp_g-22" style="rounded=0;orthogonalLoop=1;jettySize=auto;html=1;exitX=0.5;exitY=1;exitDx=0;exitDy=0;entryX=0.25;entryY=0;entryDx=0;entryDy=0;endArrow=none;startFill=0;" parent="1" source="21jT29tWylWuVhvwRp_g-21" target="DlGrRHyC1cA0BXUMPYq3-2" edge="1">
          <mxGeometry relative="1" as="geometry" />
        </mxCell>
        <mxCell id="21jT29tWylWuVhvwRp_g-21" value="&lt;u&gt;user_ID&lt;/u&gt;" style="ellipse;whiteSpace=wrap;html=1;align=center;" parent="1" vertex="1">
          <mxGeometry x="475" y="59.99999999999997" width="100" height="40" as="geometry" />
        </mxCell>
        <mxCell id="21jT29tWylWuVhvwRp_g-24" style="rounded=0;orthogonalLoop=1;jettySize=auto;html=1;exitX=0.5;exitY=1;exitDx=0;exitDy=0;entryX=0.75;entryY=0;entryDx=0;entryDy=0;endArrow=none;startFill=0;" parent="1" source="21jT29tWylWuVhvwRp_g-23" target="DlGrRHyC1cA0BXUMPYq3-2" edge="1">
          <mxGeometry relative="1" as="geometry" />
        </mxCell>
        <mxCell id="21jT29tWylWuVhvwRp_g-23" value="name" style="ellipse;whiteSpace=wrap;html=1;align=center;" parent="1" vertex="1">
          <mxGeometry x="585" y="59.99999999999997" width="100" height="40" as="geometry" />
        </mxCell>
        <mxCell id="21jT29tWylWuVhvwRp_g-26" style="rounded=0;orthogonalLoop=1;jettySize=auto;html=1;exitX=1;exitY=0.5;exitDx=0;exitDy=0;entryX=0;entryY=0.5;entryDx=0;entryDy=0;endArrow=none;startFill=0;" parent="1" source="21jT29tWylWuVhvwRp_g-25" target="DlGrRHyC1cA0BXUMPYq3-2" edge="1">
          <mxGeometry relative="1" as="geometry" />
        </mxCell>
        <mxCell id="21jT29tWylWuVhvwRp_g-25" value="phoneNumber" style="ellipse;whiteSpace=wrap;html=1;align=center;" parent="1" vertex="1">
          <mxGeometry x="400" y="129.99999999999997" width="100" height="40" as="geometry" />
        </mxCell>
        <mxCell id="21jT29tWylWuVhvwRp_g-27" value="email" style="ellipse;whiteSpace=wrap;html=1;align=center;" parent="1" vertex="1">
          <mxGeometry x="659" y="189.99999999999997" width="100" height="40" as="geometry" />
        </mxCell>
        <mxCell id="21jT29tWylWuVhvwRp_g-28" style="rounded=0;orthogonalLoop=1;jettySize=auto;html=1;exitX=1;exitY=0.75;exitDx=0;exitDy=0;entryX=0;entryY=0;entryDx=0;entryDy=0;endArrow=none;startFill=0;" parent="1" source="DlGrRHyC1cA0BXUMPYq3-2" target="21jT29tWylWuVhvwRp_g-27" edge="1">
          <mxGeometry relative="1" as="geometry" />
        </mxCell>
        <mxCell id="21jT29tWylWuVhvwRp_g-30" style="rounded=0;orthogonalLoop=1;jettySize=auto;html=1;exitX=0;exitY=1;exitDx=0;exitDy=0;entryX=1;entryY=0.25;entryDx=0;entryDy=0;endArrow=none;startFill=0;" parent="1" source="21jT29tWylWuVhvwRp_g-29" target="DlGrRHyC1cA0BXUMPYq3-2" edge="1">
          <mxGeometry relative="1" as="geometry" />
        </mxCell>
        <mxCell id="21jT29tWylWuVhvwRp_g-29" value="dateCreated" style="ellipse;whiteSpace=wrap;html=1;align=center;" parent="1" vertex="1">
          <mxGeometry x="695" y="79.99999999999997" width="100" height="40" as="geometry" />
        </mxCell>
        <mxCell id="21jT29tWylWuVhvwRp_g-31" value="Payment_method" style="text;html=1;align=center;verticalAlign=middle;whiteSpace=wrap;rounded=0;" parent="1" vertex="1">
          <mxGeometry x="299" y="487.5" width="20" height="25" as="geometry" />
        </mxCell>
        <mxCell id="21jT29tWylWuVhvwRp_g-35" style="rounded=0;orthogonalLoop=1;jettySize=auto;html=1;exitX=0.5;exitY=1;exitDx=0;exitDy=0;entryX=0.379;entryY=0.013;entryDx=0;entryDy=0;endArrow=none;startFill=0;entryPerimeter=0;" parent="1" target="DlGrRHyC1cA0BXUMPYq3-254" edge="1">
          <mxGeometry relative="1" as="geometry">
            <mxPoint x="496" y="230" as="sourcePoint" />
          </mxGeometry>
        </mxCell>
        <mxCell id="21jT29tWylWuVhvwRp_g-39" style="rounded=0;orthogonalLoop=1;jettySize=auto;html=1;exitX=0.5;exitY=1;exitDx=0;exitDy=0;entryX=0;entryY=0.25;entryDx=0;entryDy=0;endArrow=none;startFill=0;" parent="1" source="21jT29tWylWuVhvwRp_g-37" target="DlGrRHyC1cA0BXUMPYq3-254" edge="1">
          <mxGeometry relative="1" as="geometry" />
        </mxCell>
        <mxCell id="21jT29tWylWuVhvwRp_g-37" value="&lt;span style=&quot;border-bottom: 1px dotted&quot;&gt;paymentMethod&lt;/span&gt;" style="ellipse;whiteSpace=wrap;html=1;align=center;" parent="1" vertex="1">
          <mxGeometry x="321" y="215.02999999999997" width="100" height="40" as="geometry" />
        </mxCell>
        <mxCell id="21jT29tWylWuVhvwRp_g-41" style="rounded=0;orthogonalLoop=1;jettySize=auto;html=1;exitX=0.5;exitY=0;exitDx=0;exitDy=0;entryX=0.75;entryY=1;entryDx=0;entryDy=0;endArrow=none;startFill=0;" parent="1" target="DlGrRHyC1cA0BXUMPYq3-254" edge="1">
          <mxGeometry relative="1" as="geometry">
            <mxPoint x="570" y="334" as="sourcePoint" />
          </mxGeometry>
        </mxCell>
        <mxCell id="21jT29tWylWuVhvwRp_g-43" style="edgeStyle=orthogonalEdgeStyle;rounded=0;orthogonalLoop=1;jettySize=auto;html=1;exitX=0;exitY=0.5;exitDx=0;exitDy=0;entryX=1;entryY=0.5;entryDx=0;entryDy=0;endArrow=none;startFill=0;" parent="1" source="21jT29tWylWuVhvwRp_g-42" target="DlGrRHyC1cA0BXUMPYq3-253" edge="1">
          <mxGeometry relative="1" as="geometry" />
        </mxCell>
        <mxCell id="21jT29tWylWuVhvwRp_g-42" value="driverLicense" style="ellipse;whiteSpace=wrap;html=1;align=center;" parent="1" vertex="1">
          <mxGeometry x="770" y="275.03" width="100" height="40" as="geometry" />
        </mxCell>
        <mxCell id="21jT29tWylWuVhvwRp_g-44" value="rating" style="ellipse;whiteSpace=wrap;html=1;align=center;" parent="1" vertex="1">
          <mxGeometry x="740" y="334" width="100" height="40" as="geometry" />
        </mxCell>
        <mxCell id="21jT29tWylWuVhvwRp_g-46" value="pickupPoint" style="ellipse;whiteSpace=wrap;html=1;align=center;" parent="1" vertex="1">
          <mxGeometry x="100" y="59.99999999999997" width="100" height="40" as="geometry" />
        </mxCell>
        <mxCell id="21jT29tWylWuVhvwRp_g-51" style="rounded=0;orthogonalLoop=1;jettySize=auto;html=1;exitX=0.5;exitY=1;exitDx=0;exitDy=0;entryX=0.75;entryY=0;entryDx=0;entryDy=0;endArrow=none;startFill=0;" parent="1" source="21jT29tWylWuVhvwRp_g-47" target="DlGrRHyC1cA0BXUMPYq3-259" edge="1">
          <mxGeometry relative="1" as="geometry" />
        </mxCell>
        <mxCell id="21jT29tWylWuVhvwRp_g-47" value="dropoffPoint" style="ellipse;whiteSpace=wrap;html=1;align=center;" parent="1" vertex="1">
          <mxGeometry x="210" y="69.99999999999997" width="100" height="40" as="geometry" />
        </mxCell>
        <mxCell id="21jT29tWylWuVhvwRp_g-49" style="rounded=0;orthogonalLoop=1;jettySize=auto;html=1;exitX=1;exitY=1;exitDx=0;exitDy=0;entryX=0;entryY=0.25;entryDx=0;entryDy=0;endArrow=none;startFill=0;" parent="1" source="21jT29tWylWuVhvwRp_g-48" target="DlGrRHyC1cA0BXUMPYq3-259" edge="1">
          <mxGeometry relative="1" as="geometry" />
        </mxCell>
        <mxCell id="21jT29tWylWuVhvwRp_g-48" value="city" style="ellipse;whiteSpace=wrap;html=1;align=center;" parent="1" vertex="1">
          <mxGeometry x="40" y="119.99999999999997" width="100" height="40" as="geometry" />
        </mxCell>
        <mxCell id="21jT29tWylWuVhvwRp_g-50" style="rounded=0;orthogonalLoop=1;jettySize=auto;html=1;exitX=0.5;exitY=1;exitDx=0;exitDy=0;entryX=0.293;entryY=0.033;entryDx=0;entryDy=0;entryPerimeter=0;endArrow=none;startFill=0;" parent="1" source="21jT29tWylWuVhvwRp_g-46" target="DlGrRHyC1cA0BXUMPYq3-259" edge="1">
          <mxGeometry relative="1" as="geometry" />
        </mxCell>
        <mxCell id="21jT29tWylWuVhvwRp_g-53" style="rounded=0;orthogonalLoop=1;jettySize=auto;html=1;exitX=1;exitY=0;exitDx=0;exitDy=0;entryX=0;entryY=0.75;entryDx=0;entryDy=0;endArrow=none;startFill=0;" parent="1" source="21jT29tWylWuVhvwRp_g-52" target="DlGrRHyC1cA0BXUMPYq3-259" edge="1">
          <mxGeometry relative="1" as="geometry" />
        </mxCell>
        <mxCell id="21jT29tWylWuVhvwRp_g-52" value="&lt;u&gt;rideID&lt;/u&gt;" style="ellipse;whiteSpace=wrap;html=1;align=center;" parent="1" vertex="1">
          <mxGeometry x="55" y="187.99999999999997" width="100" height="40" as="geometry" />
        </mxCell>
        <mxCell id="21jT29tWylWuVhvwRp_g-56" style="rounded=0;orthogonalLoop=1;jettySize=auto;html=1;exitX=0;exitY=1;exitDx=0;exitDy=0;entryX=0.75;entryY=0;entryDx=0;entryDy=0;endArrow=none;startFill=0;" parent="1" source="21jT29tWylWuVhvwRp_g-55" target="DlGrRHyC1cA0BXUMPYq3-256" edge="1">
          <mxGeometry relative="1" as="geometry" />
        </mxCell>
        <mxCell id="21jT29tWylWuVhvwRp_g-55" value="dateCreated" style="ellipse;whiteSpace=wrap;html=1;align=center;" parent="1" vertex="1">
          <mxGeometry x="1030" y="315.5" width="100" height="40" as="geometry" />
        </mxCell>
        <mxCell id="21jT29tWylWuVhvwRp_g-58" style="rounded=0;orthogonalLoop=1;jettySize=auto;html=1;exitX=0.5;exitY=1;exitDx=0;exitDy=0;entryX=0.75;entryY=0;entryDx=0;entryDy=0;endArrow=none;startFill=0;" parent="1" source="21jT29tWylWuVhvwRp_g-57" target="DlGrRHyC1cA0BXUMPYq3-262" edge="1">
          <mxGeometry relative="1" as="geometry" />
        </mxCell>
        <mxCell id="21jT29tWylWuVhvwRp_g-57" value="dateCreated" style="ellipse;whiteSpace=wrap;html=1;align=center;" parent="1" vertex="1">
          <mxGeometry x="1000" y="69.99999999999997" width="100" height="40" as="geometry" />
        </mxCell>
        <mxCell id="21jT29tWylWuVhvwRp_g-59" value="User_type" style="text;html=1;align=center;verticalAlign=middle;whiteSpace=wrap;rounded=0;" parent="1" vertex="1">
          <mxGeometry x="607" y="177" width="20" height="25" as="geometry" />
        </mxCell>
        <mxCell id="21jT29tWylWuVhvwRp_g-60" value="provide" style="shape=rhombus;perimeter=rhombusPerimeter;whiteSpace=wrap;html=1;align=center;" parent="1" vertex="1">
          <mxGeometry x="292" y="340.5" width="80" height="60" as="geometry" />
        </mxCell>
        <mxCell id="21jT29tWylWuVhvwRp_g-63" style="rounded=0;orthogonalLoop=1;jettySize=auto;html=1;exitX=1;exitY=0.5;exitDx=0;exitDy=0;entryX=0;entryY=0.5;entryDx=0;entryDy=0;endArrow=none;startFill=0;" parent="1" source="21jT29tWylWuVhvwRp_g-62" target="21jT29tWylWuVhvwRp_g-60" edge="1">
          <mxGeometry relative="1" as="geometry" />
        </mxCell>
        <mxCell id="21jT29tWylWuVhvwRp_g-66" style="rounded=0;orthogonalLoop=1;jettySize=auto;html=1;exitX=0;exitY=0.25;exitDx=0;exitDy=0;entryX=0.734;entryY=0.928;entryDx=0;entryDy=0;endArrow=none;startFill=0;entryPerimeter=0;" parent="1" source="21jT29tWylWuVhvwRp_g-62" target="21jT29tWylWuVhvwRp_g-65" edge="1">
          <mxGeometry relative="1" as="geometry" />
        </mxCell>
        <mxCell id="21jT29tWylWuVhvwRp_g-62" value="REVIEW" style="whiteSpace=wrap;html=1;align=center;" parent="1" vertex="1">
          <mxGeometry x="130" y="400.5" width="100" height="40" as="geometry" />
        </mxCell>
        <mxCell id="21jT29tWylWuVhvwRp_g-65" value="&lt;u&gt;reviewID&lt;/u&gt;" style="ellipse;whiteSpace=wrap;html=1;align=center;" parent="1" vertex="1">
          <mxGeometry x="20" y="360.5" width="100" height="40" as="geometry" />
        </mxCell>
        <mxCell id="21jT29tWylWuVhvwRp_g-70" style="rounded=0;orthogonalLoop=1;jettySize=auto;html=1;exitX=1;exitY=0;exitDx=0;exitDy=0;entryX=0;entryY=0.75;entryDx=0;entryDy=0;endArrow=none;startFill=0;" parent="1" source="21jT29tWylWuVhvwRp_g-68" target="21jT29tWylWuVhvwRp_g-62" edge="1">
          <mxGeometry relative="1" as="geometry" />
        </mxCell>
        <mxCell id="21jT29tWylWuVhvwRp_g-68" value="feedback" style="ellipse;whiteSpace=wrap;html=1;align=center;" parent="1" vertex="1">
          <mxGeometry x="20" y="434" width="100" height="40" as="geometry" />
        </mxCell>
        <mxCell id="21jT29tWylWuVhvwRp_g-69" value="rating" style="ellipse;whiteSpace=wrap;html=1;align=center;" parent="1" vertex="1">
          <mxGeometry x="140" y="340.5" width="100" height="40" as="geometry" />
        </mxCell>
        <mxCell id="21jT29tWylWuVhvwRp_g-71" style="rounded=0;orthogonalLoop=1;jettySize=auto;html=1;exitX=0.5;exitY=1;exitDx=0;exitDy=0;entryX=0.541;entryY=-0.006;entryDx=0;entryDy=0;entryPerimeter=0;endArrow=none;startFill=0;" parent="1" source="21jT29tWylWuVhvwRp_g-69" target="21jT29tWylWuVhvwRp_g-62" edge="1">
          <mxGeometry relative="1" as="geometry" />
        </mxCell>
        <mxCell id="21jT29tWylWuVhvwRp_g-73" style="rounded=0;orthogonalLoop=1;jettySize=auto;html=1;exitX=0;exitY=0;exitDx=0;exitDy=0;entryX=0.75;entryY=1;entryDx=0;entryDy=0;endArrow=none;startFill=0;" parent="1" source="21jT29tWylWuVhvwRp_g-72" target="DlGrRHyC1cA0BXUMPYq3-262" edge="1">
          <mxGeometry relative="1" as="geometry" />
        </mxCell>
        <mxCell id="21jT29tWylWuVhvwRp_g-72" value="&lt;span style=&quot;border-bottom: 1px dotted&quot;&gt;Admin_ID&lt;/span&gt;" style="ellipse;whiteSpace=wrap;html=1;align=center;" parent="1" vertex="1">
          <mxGeometry x="1030" y="195.03" width="100" height="40" as="geometry" />
        </mxCell>
        <mxCell id="21jT29tWylWuVhvwRp_g-75" style="rounded=0;orthogonalLoop=1;jettySize=auto;html=1;exitX=0.5;exitY=0;exitDx=0;exitDy=0;entryX=0.25;entryY=1;entryDx=0;entryDy=0;endArrow=none;startFill=0;" parent="1" source="21jT29tWylWuVhvwRp_g-74" target="DlGrRHyC1cA0BXUMPYq3-262" edge="1">
          <mxGeometry relative="1" as="geometry" />
        </mxCell>
        <mxCell id="21jT29tWylWuVhvwRp_g-74" value="&lt;span style=&quot;border-bottom: 1px dotted&quot;&gt;user_ID&lt;/span&gt;" style="ellipse;whiteSpace=wrap;html=1;align=center;" parent="1" vertex="1">
          <mxGeometry x="830" y="198" width="100" height="40" as="geometry" />
        </mxCell>
        <mxCell id="21jT29tWylWuVhvwRp_g-76" value="&lt;span style=&quot;border-bottom: 1px dotted&quot;&gt;rideHistory&lt;/span&gt;" style="ellipse;whiteSpace=wrap;html=1;align=center;" parent="1" vertex="1">
          <mxGeometry x="447" y="189.99999999999997" width="100" height="40" as="geometry" />
        </mxCell>
        <mxCell id="21jT29tWylWuVhvwRp_g-78" style="rounded=0;orthogonalLoop=1;jettySize=auto;html=1;exitX=0.5;exitY=1;exitDx=0;exitDy=0;entryX=1;entryY=0.75;entryDx=0;entryDy=0;endArrow=none;startFill=0;" parent="1" source="21jT29tWylWuVhvwRp_g-77" target="DlGrRHyC1cA0BXUMPYq3-259" edge="1">
          <mxGeometry relative="1" as="geometry" />
        </mxCell>
        <mxCell id="21jT29tWylWuVhvwRp_g-77" value="rideHistory" style="ellipse;whiteSpace=wrap;html=1;align=center;" parent="1" vertex="1">
          <mxGeometry x="285" y="107.02999999999997" width="100" height="40" as="geometry" />
        </mxCell>
        <mxCell id="21jT29tWylWuVhvwRp_g-79" value="rating" style="ellipse;whiteSpace=wrap;html=1;align=center;" parent="1" vertex="1">
          <mxGeometry x="530" y="334" width="100" height="40" as="geometry" />
        </mxCell>
        <mxCell id="BD6OlxIRB5qDYcgnjVxW-1" value="Card_details" style="ellipse;whiteSpace=wrap;html=1;align=center;" vertex="1" parent="1">
          <mxGeometry x="476" y="659" width="125" height="50" as="geometry" />
        </mxCell>
      </root>
    </mxGraphModel>
  </diagram>
</mxfile>
